<svg xmlns="http://www.w3.org/2000/svg" id="e-font-icon-svg-symbols" style="display: none;">
	<symbol id="eicon-menu-bar" viewBox="0 0 1000 1000">
		<path d="M104 333H896C929 333 958 304 958 271S929 208 896 208H104C71 208 42 237 42 271S71 333 104 333ZM104 583H896C929 583 958 554 958 521S929 458 896 458H104C71 458 42 487 42 521S71 583 104 583ZM104 833H896C929 833 958 804 958 771S929 708 896 708H104C71 708 42 737 42 771S71 833 104 833Z">
		</path>
	</symbol>
	<symbol id="eicon-close" viewBox="0 0 1000 1000">
		<path d="M742 167L500 408 258 167C246 154 233 150 217 150 196 150 179 158 167 167 154 179 150 196 150 212 150 229 154 242 171 254L408 500 167 742C138 771 138 800 167 829 196 858 225 858 254 829L496 587 738 829C750 842 767 846 783 846 800 846 817 842 829 829 842 817 846 804 846 783 846 767 842 750 829 737L588 500 833 258C863 229 863 200 833 171 804 137 775 137 742 167Z">
		</path>
	</symbol>
	<symbol id="fas-caret-down" viewBox="0 0 320 512">
		<path d="M31.3 192h257.3c17.8 0 26.7 21.5 14.1 34.1L174.1 354.8c-7.8 7.8-20.5 7.8-28.3 0L17.2 226.1C4.6 213.5 13.5 192 31.3 192z">
		</path>
	</symbol>
</svg>