<svg xmlns="http://www.w3.org/2000/svg" xmlns:xlink="http://www.w3.org/1999/xlink" viewBox="0 0 30 30" width="30px" height="30px">
												<g id="surface6922243">
													<path style=" stroke:none;fill-rule:nonzero;fill:rgb(70.19608%,75.686276%,20.392157%);fill-opacity:1;" d="M 15 28.875 C 7.351562 28.875 1.125 22.648438 1.125 15 C 1.125 7.351562 7.351562 1.125 15 1.125 C 22.648438 1.125 28.875 7.351562 28.875 15 C 28.875 22.648438 22.648438 28.875 15 28.875 Z M 15 28.875 ">
													</path>
													<path style=" stroke:none;fill-rule:nonzero;fill:rgb(0%,0%,0%);fill-opacity:1;" d="M 15 1.5 C 22.425781 1.5 28.5 7.574219 28.5 15 C 28.5 22.425781 22.425781 28.5 15 28.5 C 7.574219 28.5 1.5 22.425781 1.5 15 C 1.5 7.574219 7.574219 1.5 15 1.5 M 15 0.75 C 7.125 0.75 0.75 7.125 0.75 15 C 0.75 22.875 7.125 29.25 15 29.25 C 22.875 29.25 29.25 22.875 29.25 15 C 29.25 7.125 22.875 0.75 15 0.75 Z M 15 0.75 ">
													</path>
													<path style="fill:none;stroke-width:12.9;stroke-linecap:butt;stroke-linejoin:miter;stroke:rgb(100%,100%,100%);stroke-opacity:1;stroke-miterlimit:10;" d="M 48.151042 86.425521 L 73.1 111.374479 L 129.851042 54.601042 " transform="matrix(0.174419,0,0,0.174419,0,0)"></path>
												</g>
											</svg>